<?xml version="1.0" encoding="iso-8859-1"?>
<!-- Generator: Adobe Illustrator 16.0.0, SVG Export Plug-In . SVG Version: 6.00 Build 0)  -->
<!DOCTYPE svg PUBLIC "-//W3C//DTD SVG 1.1//EN" "http://www.w3.org/Graphics/SVG/1.1/DTD/svg11.dtd">
<svg version="1.1" id="Layer_1" xmlns="http://www.w3.org/2000/svg" xmlns:xlink="http://www.w3.org/1999/xlink" x="0px" y="0px"
	 width="36px" height="36px" viewBox="0 0 36 36" style="enable-background:new 0 0 36 36;" xml:space="preserve">
<g>
	<path style="fill:#010101;" d="M28.417,28.729c0,0-0.949-7.227-2.815-7.882c1.467-2.18-0.953-11.873-0.953-11.873
		s0.764,7.097-1.417,8.375c0-0.021,0.001-0.043,0.001-0.063c0-0.127-0.001-0.259-0.004-0.394h-0.878
		c0.008,0.348,0.014,0.683,0.016,1.011c-0.152,0.107-0.297,0.216-0.429,0.324c0-0.428-0.005-0.871-0.019-1.335h-2.68v1.509h2.489
		c-0.064,0.061-0.129,0.118-0.188,0.178c-0.086,0.086-0.164,0.172-0.241,0.255h-2.06v1.439h0.62
		c-0.241,0.095-0.446,0.207-0.62,0.341v-0.341h-0.432v0.433h0.318c-0.055,0.048-0.107,0.098-0.154,0.147
		c-0.052-0.042-0.106-0.083-0.164-0.123v-0.024h-0.035c-0.277-0.186-0.629-0.331-1.064-0.427c-0.002-0.003-0.002-0.004-0.002-0.006
		h1.102v-1.439H16.66c-0.027-0.028-0.052-0.058-0.082-0.088c-0.105-0.105-0.225-0.21-0.352-0.315c0-0.01,0-0.018,0-0.029h-0.033
		c-0.123-0.099-0.257-0.2-0.396-0.301c0.001-0.387,0.006-0.789,0.016-1.208H14.82c-0.004,0.135-0.007,0.267-0.007,0.394
		c0,0.066,0.004,0.127,0.005,0.192c-2.172-1.261-2.326-8.504-2.326-8.504s-1.44,9.862,0.026,12.041
		c-1.868,0.656-3.237,7.463-3.237,7.463s3.422-2.774,5.957-3.526c0.893,3.415,4.016,13.175,7.717-0.112
		C25.388,25.722,28.417,28.729,28.417,28.729z M19.167,23.896h-0.034c0.004-0.004,0.011-0.008,0.015-0.013
		C19.153,23.889,19.161,23.893,19.167,23.896z"/>
	<path style="fill:#010101;" d="M19.24,14.589h2.564c-0.028-0.399-0.062-0.808-0.103-1.225H19.24V14.589z"/>
	<path style="fill:#010101;" d="M22.515,11.061c-0.115-0.559-0.242-1.114-0.379-1.653h-0.533c0.098,0.563,0.182,1.114,0.258,1.653
		H22.515z"/>
	<path style="fill:#010101;" d="M19.24,12.933h2.418c-0.049-0.47-0.104-0.948-0.172-1.439H19.24V12.933z"/>
	<path style="fill:#010101;" d="M22.849,12.933c-0.074-0.478-0.157-0.958-0.25-1.439h-0.678c0.064,0.491,0.121,0.97,0.17,1.439
		H22.849z"/>
	<path style="fill:#010101;" d="M21.488,7.247c-0.176-0.496-0.363-0.956-0.559-1.366h-0.063c0.113,0.461,0.217,0.917,0.313,1.366
		H21.488z"/>
	<path style="fill:#010101;" d="M22.021,8.975c-0.121-0.449-0.25-0.882-0.387-1.295h-0.359c0.09,0.438,0.173,0.869,0.25,1.295
		H22.021z"/>
	<path style="fill:#010101;" d="M15.134,13.364c-0.059,0.416-0.111,0.824-0.154,1.225h0.947c0.028-0.399,0.063-0.808,0.103-1.225
		H15.134z"/>
	<path style="fill:#010101;" d="M16.413,7.68c-0.136,0.413-0.265,0.846-0.388,1.295h0.614c0.077-0.426,0.159-0.856,0.25-1.295
		H16.413z"/>
	<path style="fill:#010101;" d="M15.447,11.493c-0.092,0.481-0.176,0.962-0.248,1.439h0.873c0.049-0.47,0.105-0.948,0.171-1.439
		H15.447z"/>
	<path style="fill:#010101;" d="M18.808,3.928c-0.34,0.08-0.669,0.348-0.983,0.754l0.208,0.057c-0.064,0.238-0.123,0.475-0.184,0.71
		h0.959V3.928z"/>
	<path style="fill:#010101;" d="M20.13,4.738l0.113-0.03c-0.322-0.422-0.656-0.699-1.004-0.78v1.521h1.076
		C20.253,5.213,20.195,4.977,20.13,4.738z"/>
	<path style="fill:#010101;" d="M17.335,5.448h0.068c0.019-0.073,0.037-0.146,0.057-0.219C17.417,5.301,17.376,5.374,17.335,5.448z"
		/>
	<path style="fill:#010101;" d="M17.117,5.881c-0.194,0.41-0.381,0.87-0.557,1.366h0.423c0.097-0.449,0.202-0.905,0.313-1.366
		H17.117z"/>
	<path style="fill:#010101;" d="M15.912,9.407c-0.138,0.539-0.264,1.095-0.381,1.653h0.771c0.076-0.539,0.162-1.09,0.26-1.653
		H15.912z"/>
	<path style="fill:#010101;" d="M19.24,16.46h2.668c-0.018-0.463-0.041-0.942-0.072-1.439H19.24V16.46z"/>
	<path style="fill:#010101;" d="M18.808,9.407H17c-0.098,0.563-0.185,1.115-0.262,1.653h2.07V9.407z"/>
	<path style="fill:#010101;" d="M18.808,5.881h-1.067c-0.112,0.463-0.218,0.917-0.315,1.366h1.383V5.881z"/>
	<path style="fill:#010101;" d="M18.808,11.493h-2.131c-0.065,0.491-0.121,0.97-0.17,1.439h2.301V11.493z"/>
	<path style="fill:#010101;" d="M19.24,11.061h2.186c-0.076-0.539-0.163-1.09-0.261-1.653H19.24V11.061z"/>
	<path style="fill:#010101;" d="M20.739,7.247c-0.097-0.449-0.202-0.903-0.315-1.366H19.24v1.366H20.739z"/>
	<path style="fill:#010101;" d="M19.24,8.975h1.847c-0.077-0.426-0.162-0.856-0.253-1.295H19.24V8.975z"/>
	<path style="fill:#010101;" d="M18.808,7.68H17.33c-0.092,0.438-0.174,0.869-0.252,1.295h1.73V7.68z"/>
	<path style="fill:#010101;" d="M18.808,16.893h-2.565c-0.015,0.527-0.02,1.032-0.017,1.509h2.582V16.893z"/>
	<path style="fill:#010101;" d="M18.808,13.364h-2.346c-0.041,0.417-0.076,0.825-0.104,1.225h2.449V13.364z"/>
	<path style="fill:#010101;" d="M18.808,15.021H16.33c-0.033,0.497-0.057,0.977-0.072,1.439h2.551V15.021z"/>
	<path style="fill:#010101;" d="M14.935,15.021c-0.049,0.503-0.082,0.984-0.104,1.439h0.994c0.018-0.463,0.041-0.942,0.072-1.439
		H14.935z"/>
	<path style="fill:#010101;" d="M23.214,16.46c-0.019-0.455-0.053-0.937-0.103-1.439h-0.845c0.031,0.497,0.055,0.977,0.072,1.439
		H23.214z"/>
	<path style="fill:#010101;" d="M23.068,14.589c-0.044-0.4-0.096-0.809-0.154-1.225h-0.779c0.039,0.417,0.074,0.825,0.104,1.225
		H23.068z"/>
	<path style="fill:#010101;" d="M17.849,5.448h-0.445c-0.038,0.146-0.072,0.29-0.107,0.433h0.444
		C17.775,5.738,17.812,5.594,17.849,5.448z"/>
	<path style="fill:#010101;" d="M20.867,5.881c-0.02-0.084-0.039-0.166-0.059-0.25c-0.032-0.062-0.064-0.122-0.097-0.183h-0.396
		c0.034,0.146,0.072,0.29,0.107,0.433H20.867z"/>
	<rect x="18.808" y="5.448" style="fill:#010101;" width="0.432" height="0.433"/>
	<path style="fill:#010101;" d="M17.425,7.247h-0.442c-0.032,0.146-0.063,0.29-0.094,0.433h0.44
		C17.361,7.537,17.394,7.393,17.425,7.247z"/>
	<path style="fill:#010101;" d="M20.833,7.68h0.441c-0.031-0.143-0.063-0.287-0.096-0.433h-0.44
		C20.771,7.393,20.803,7.537,20.833,7.68z"/>
	<rect x="18.808" y="7.247" style="fill:#010101;" width="0.432" height="0.433"/>
	<path style="fill:#010101;" d="M17.078,8.975h-0.438c-0.026,0.145-0.052,0.29-0.077,0.433H17
		C17.027,9.265,17.051,9.119,17.078,8.975z"/>
	<path style="fill:#010101;" d="M21.165,9.407h0.438c-0.026-0.143-0.053-0.288-0.078-0.433h-0.438
		C21.111,9.119,21.138,9.265,21.165,9.407z"/>
	<rect x="18.808" y="8.975" style="fill:#010101;" width="0.432" height="0.433"/>
	<path style="fill:#010101;" d="M16.738,11.061h-0.436c-0.02,0.146-0.041,0.29-0.06,0.433h0.435
		C16.697,11.351,16.718,11.207,16.738,11.061z"/>
	<path style="fill:#010101;" d="M21.486,11.493h0.436c-0.018-0.143-0.04-0.286-0.061-0.433h-0.436
		C21.445,11.207,21.466,11.351,21.486,11.493z"/>
	<rect x="18.808" y="11.061" style="fill:#010101;" width="0.432" height="0.433"/>
	<path style="fill:#010101;" d="M16.507,12.933h-0.436c-0.014,0.146-0.028,0.29-0.042,0.432h0.433
		C16.476,13.223,16.492,13.078,16.507,12.933z"/>
	<path style="fill:#010101;" d="M21.702,13.364h0.433c-0.012-0.142-0.027-0.286-0.043-0.432h-0.434
		C21.673,13.078,21.688,13.223,21.702,13.364z"/>
	<rect x="18.808" y="12.933" style="fill:#010101;" width="0.432" height="0.432"/>
	<path style="fill:#010101;" d="M16.359,14.589h-0.432c-0.012,0.145-0.021,0.289-0.029,0.432h0.432
		C16.337,14.878,16.348,14.733,16.359,14.589z"/>
	<path style="fill:#010101;" d="M21.835,15.021h0.432c-0.01-0.143-0.02-0.287-0.029-0.432h-0.434
		C21.816,14.733,21.827,14.878,21.835,15.021z"/>
	<rect x="18.808" y="14.589" style="fill:#010101;" width="0.432" height="0.432"/>
	<path style="fill:#010101;" d="M16.257,16.46h-0.432c-0.005,0.146-0.01,0.289-0.014,0.433h0.431
		C16.247,16.749,16.25,16.605,16.257,16.46z"/>
	<path style="fill:#010101;" d="M21.919,16.893h0.432c-0.004-0.144-0.008-0.287-0.012-0.433h-0.432
		C21.912,16.605,21.916,16.749,21.919,16.893z"/>
	<rect x="18.808" y="16.46" style="fill:#010101;" width="0.432" height="0.433"/>
	<rect x="18.808" y="18.401" style="fill:#010101;" width="0.432" height="0.433"/>
</g>
</svg>
